<?xml version="1.0" standalone="no"?><!DOCTYPE svg PUBLIC "-//W3C//DTD SVG 1.1//EN" "http://www.w3.org/Graphics/SVG/1.1/DTD/svg11.dtd"><svg class="icon" width="200px" height="200.00px" viewBox="0 0 1024 1024" version="1.1" xmlns="http://www.w3.org/2000/svg"><path d="M426.666667 213.333333v42.666667a85.333333 85.333333 0 1 0 170.666666 0V213.333333h256a42.666667 42.666667 0 0 1 42.666667 42.666667v213.333333a42.666667 42.666667 0 0 1-42.666667 42.666667h-85.333333v298.666667a42.666667 42.666667 0 0 1-42.666667 42.666666H298.666667a42.666667 42.666667 0 0 1-42.666667-42.666666v-298.666667H170.666667a42.666667 42.666667 0 0 1-42.666667-42.666667V256a42.666667 42.666667 0 0 1 42.666667-42.666667h256z m384 85.333334h-133.418667l-1.792 6.613333a170.752 170.752 0 0 1-154.922667 121.173333L512 426.666667a170.752 170.752 0 0 1-163.413333-121.386667L346.666667 298.666667H213.333333v128h128v341.333333h341.333334v-341.333333h128V298.666667z" fill="#182033" /></svg>